PathFileType	4	(X/Y/Z)	C:/Users/beibeiliu/ov580/test_trc/User2\sequence.17_training_dense_left.trc
DataRate	CameraRate	NumFrames	NumMarkers	Units	OrigDataRate	OrigDataStartFrame	OrigNumFrames
120	120	11	19	mm	120	1	38
Frame#	Time	ThumbCMC			ThumbMCP			ThumbIP			ThumbTip			IndexMCP			IndexPIP			IndexTip			MiddleMCP			MiddlePIP			MiddleTip			RingMCP			RingPIP			RingTip			PinkyMCP			PinkyPIP			PinkyTip			BackHand1			BackHand2			BackHand3	
		X0	Y0	Z0	X1	Y1	Z1	X2	Y2	Z2	X3	Y3	Z3	X4	Y4	Z4	X5	Y5	Z5	X6	Y6	Z6	X7	Y7	Z7	X8	Y8	Z8	X9	Y9	Z9	X10	Y10	Z10	X11	Y11	Z11	X12	Y12	Z12	X13	Y13	Z13	X14	Y14	Z14	X15	Y15	Z15	X16	Y16	Z16	X17	Y17	Z17	X18	Y18	Z18	
0	0	-272.472	51.762	-9.78464	-261.834	43.3401	-47.3641	-264.87	30.2876	-82.9894	-283.455	7.00755	-99.3401	-334.336	65.9843	-59.7989	-342.222	79.5441	-81.6048	-357.082	94.1987	-106.049	-354.408	43.512	-62.5402	-372.451	47.8043	-88.2623	-390.099	50.221	-113.913	-342.251	13.5085	-74.7896	-327.847	4.67643	-99.2775	-292.821	-4.43519	-93.5856	-335.958	-11.7689	-63.2331	-316.037	-16.8557	-85.5206	-283.454	-15.8764	-79.6874	-337.937	13.9045	-11.0323	-323.477	10.657	25.0024	-318.197	44.8081	3.13203	
1	0.00833333	-256.72	45.9411	-9.17773	-249.126	35.8993	-46.515	-260.918	23.0669	-76.7919	-283.072	8.85068	-94.7186	-307.837	83.5935	-59.4053	-312.226	99.4482	-83.7155	-318.972	114.364	-107.775	-335.535	70.1577	-62.301	-348.789	77.7807	-84.1365	-367.059	85.4064	-111.74	-336.669	33.8999	-70.4508	-320.961	22.6675	-95.6677	-289.003	0.255529	-84.0501	-335.213	10.8399	-56.9691	-312.322	-6.31449	-81.2921	-287.103	-14.3712	-68.6332	-328.955	32.8426	-5.50095	-317.619	29.8347	25.4804	-298.839	57.9283	3.60176	
2	0.0166667	-240.786	34.3198	-7.24342	-237.644	21.8322	-42.9508	-255.05	13.1809	-79.9068	-276.97	6.44929	-89.7584	-273.726	89.6945	-62.4973	-277.601	100.706	-83.096	-275.566	116.487	-105.704	-310.438	80.9611	-58.2489	-320.806	94.2768	-84.6288	-332.35	106.743	-110.225	-317.947	50.8385	-67.2072	-309.332	27.6415	-93.4557	-289.405	1.65654	-79.2202	-329.636	24.9295	-56.7264	-311.723	0.487736	-75.0066	-288.952	-9.37825	-57.1772	-314.935	47.9364	-4.09315	-302.515	40.1866	25.9825	-277.449	59.0675	6.75634	
3	0.025	-226.133	21.9221	-12.228	-229.696	5.87988	-43.5801	-247.136	-2.33489	-75.229	-269.986	-5.56821	-87.5743	-251.338	76.6185	-66.0265	-246.006	89.596	-90.1306	-250.455	99.2753	-111.004	-283.564	76.7987	-61.0823	-294.59	91.217	-90.8921	-305.41	102.266	-116.11	-300.94	48.693	-70.6322	-299.65	23.0298	-91.9293	-283.983	-2.7349	-79.525	-313.487	27.1723	-53.9577	-301.377	-1.09732	-70.8375	-282.096	-15.5371	-49.4511	-295.723	50.7194	-8.16869	-289.906	42.2789	25.4809	-256.863	55.0789	2.2053	
4	0.0333333	-216.478	5.581	-5.79269	-218.867	-13.6147	-41.6587	-234.63	-25.9506	-71.1886	-262.212	-26.0885	-84.5153	-230.608	54.7169	-67.8087	-228.436	62.7217	-92.0018	-225.112	72.4963	-117.394	-264.496	62.1171	-72.5517	-272.925	69.1099	-102.238	-281.989	76.3652	-125.308	-290.511	30.7602	-70.2965	-286.081	2.53823	-90.2036	-274.436	-23.8095	-69.3146	-305.153	10.0632	-53.8902	-290.039	-16.3277	-63.4873	-271.192	-28.3269	-38.836	-280.54	43.7368	-9.43419	-269.193	38.9264	21.8555	-241.377	42.8311	-0.786338	
5	0.0416667	-204.873	-5.78557	-6.75562	-205.903	-30.5566	-33.7126	-224.455	-46.2816	-63.0815	-249.434	-51.1827	-75.6898	-217.785	31.3453	-70.8166	-218.389	36.2234	-101.372	-212.741	40.5532	-124.021	-257.349	34.2729	-77.3132	-262.376	35.7786	-106.568	-274.808	35.8704	-134.324	-279.032	4.74971	-70.2947	-275.677	-27.2857	-82.8612	-262.55	-48.1621	-61.1324	-290.545	-11.3903	-51.2245	-276.669	-39.3763	-54.3398	-257.397	-44.0233	-27.5934	-265.307	29.2639	-10.0365	-259.882	28.9208	21.4283	-226.521	30.938	-3.03177	
6	0.05	-193.847	-7.2515	-2.45236	-190.924	-38.5878	-25.1378	-204.607	-61.4315	-45.0341	-228.347	-71.1076	-59.1797	-215.582	15.1828	-77.7316	-208.6	13.8973	-98.8875	-208.033	14.4651	-126.809	-252.926	8.99017	-80.1538	-255.459	3.11687	-106.592	-265.811	-5.50509	-138.198	-263.595	-19.2846	-66.5013	-258.294	-52.2871	-72.9873	-236.891	-68.0151	-44.6892	-278.821	-36.8636	-44.4445	-255.232	-62.5259	-38.3546	-237.337	-54.9249	-14.8812	-260.115	14.6983	-12.401	-258.722	22.3452	20.4605	-227.088	27.0586	-3.56687	
7	0.0583333	-190.531	6.54539	6.38288	-177.204	-27.7916	-10.3182	-180.516	-60.2695	-33.2017	-199.816	-78.9673	-43.6659	-211.274	7.87381	-75.7438	-202.199	2.98064	-102.026	-201.942	-1.54007	-124.944	-243.486	-11.1666	-79.1483	-244.323	-25.294	-103.623	-244.89	-42.6553	-134.758	-247.689	-39.3353	-60.8893	-234.275	-70.3713	-56.9983	-214.015	-73.8463	-29.0951	-258.878	-56.2559	-37.6414	-232.926	-70.2404	-26.7899	-216.978	-51.1905	-1.39964	-264.637	3.17246	-13.3057	-263.037	17.6528	15.0936	-229.8	29.3022	-8.11071	
8	0.0666667	-196.696	22.1655	5.78672	-173.338	-7.30579	-4.46093	-165.626	-38.0914	-18.0019	-177.801	-64.4468	-29.2007	-210.136	8.53564	-72.5595	-198.917	1.86548	-100.472	-189.513	-2.40611	-125.713	-233.017	-18.1659	-74.0929	-227.329	-41.0875	-100.657	-219.342	-58.9324	-123.05	-229.082	-48.7841	-53.6544	-206.01	-69.4441	-44.2469	-186.565	-58.6942	-13.7112	-240.119	-59.707	-27.9576	-209.124	-65.2359	-15.3474	-201.606	-40.6473	8.11727	-261.156	-4.83015	-16.6198	-269.938	12.4715	14.2546	-239.828	28.7507	-9.80371	
9	0.075	-211.919	39.6868	4.41825	-173.614	21.519	-3.0295	-152.96	-4.22768	-12.676	-158.149	-34.0712	-18.2736	-212.346	16.3615	-74.9056	-202.339	9.64971	-96.5966	-191.422	5.08045	-122.994	-223.82	-16.8066	-75.7502	-209.688	-33.7673	-97.6127	-194.661	-53.0165	-116.584	-208.5	-40.1034	-50.6225	-183.165	-52.7906	-36.6653	-172.516	-32.8919	-6.45958	-218.55	-49.6853	-25.083	-188.122	-44.9977	-5.97154	-192.676	-19.0055	10.6961	-260.929	-11.8357	-17.278	-274.487	4.71512	6.56405	-251.78	30.9289	-14.2139	
10	0.0833333	-227.104	54.2726	-2.72047	-188.072	49.8003	-7.01908	-157.557	31.4544	-16.2248	-147.848	2.39985	-22.2836	-219.03	24.077	-78.4702	-207.019	25.57	-101.098	-193.79	20.3159	-127.952	-216.705	-9.77947	-77.7342	-197.862	-19.725	-97.1894	-175.865	-35.455	-115.004	-194.806	-26.9694	-45.8149	-165.276	-21.2572	-34.819	-165.254	4.08583	-5.27271	-198.355	-32.4361	-23.699	-173.31	-14.838	-5.49504	-189.581	6.75064	10.6762	-253.122	-14.4235	-17.8911	-270.738	-2.96999	4.49564	-261.927	25.8757	-18.6105	
